<mxfile host="Electron" modified="2023-11-18T13:07:51.279Z" agent="Mozilla/5.0 (Windows NT 10.0; Win64; x64) AppleWebKit/537.36 (KHTML, like Gecko) draw.io/22.0.3 Chrome/114.0.5735.289 Electron/25.8.4 Safari/537.36" etag="yAzJB_7bVFeAmQfddwU3" version="22.0.3" type="device" pages="2">
  <diagram name="Page-1" id="ZAZuDv3mJR25_1vIPFmQ">
    <mxGraphModel dx="1480" dy="890" grid="1" gridSize="10" guides="1" tooltips="1" connect="1" arrows="1" fold="1" page="1" pageScale="1" pageWidth="827" pageHeight="1169" math="0" shadow="0">
      <root>
        <mxCell id="0" />
        <mxCell id="1" parent="0" />
        <mxCell id="5C9z1z_1abzm-yXC4u0z-18" value="" style="group" parent="1" vertex="1" connectable="0">
          <mxGeometry x="39" y="30" width="750" height="200" as="geometry" />
        </mxCell>
        <mxCell id="5F9HXcc7RbMU-AuzjVrL-7" value="&lt;font style=&quot;font-size: 19px;&quot;&gt;Student&lt;/font&gt;" style="html=1;dashed=0;whiteSpace=wrap;fontSize=19;" parent="5C9z1z_1abzm-yXC4u0z-18" vertex="1">
          <mxGeometry width="120" height="80" as="geometry" />
        </mxCell>
        <mxCell id="5F9HXcc7RbMU-AuzjVrL-11" value="" style="endArrow=classic;html=1;rounded=0;exitX=1;exitY=0.25;exitDx=0;exitDy=0;entryX=0;entryY=0.25;entryDx=0;entryDy=0;fontSize=16;" parent="5C9z1z_1abzm-yXC4u0z-18" source="5F9HXcc7RbMU-AuzjVrL-7" target="5F9HXcc7RbMU-AuzjVrL-9" edge="1">
          <mxGeometry relative="1" as="geometry">
            <mxPoint x="345" as="sourcePoint" />
            <mxPoint x="445" as="targetPoint" />
          </mxGeometry>
        </mxCell>
        <mxCell id="5F9HXcc7RbMU-AuzjVrL-12" value="Label" style="edgeLabel;resizable=0;html=1;align=center;verticalAlign=middle;fontSize=15;" parent="5F9HXcc7RbMU-AuzjVrL-11" connectable="0" vertex="1">
          <mxGeometry relative="1" as="geometry" />
        </mxCell>
        <mxCell id="5F9HXcc7RbMU-AuzjVrL-14" value="ID Card" style="edgeLabel;html=1;align=center;verticalAlign=middle;resizable=0;points=[];fontSize=15;" parent="5F9HXcc7RbMU-AuzjVrL-11" vertex="1" connectable="0">
          <mxGeometry relative="1" as="geometry">
            <mxPoint as="offset" />
          </mxGeometry>
        </mxCell>
        <mxCell id="5F9HXcc7RbMU-AuzjVrL-15" value="" style="endArrow=classic;html=1;rounded=0;exitX=1;exitY=0.5;exitDx=0;exitDy=0;entryX=0;entryY=0.5;entryDx=0;entryDy=0;fontSize=16;" parent="5C9z1z_1abzm-yXC4u0z-18" source="5F9HXcc7RbMU-AuzjVrL-7" target="5F9HXcc7RbMU-AuzjVrL-9" edge="1">
          <mxGeometry relative="1" as="geometry">
            <mxPoint x="345" as="sourcePoint" />
            <mxPoint x="445" as="targetPoint" />
          </mxGeometry>
        </mxCell>
        <mxCell id="5F9HXcc7RbMU-AuzjVrL-16" value="Label" style="edgeLabel;resizable=0;html=1;align=center;verticalAlign=middle;fontSize=15;" parent="5F9HXcc7RbMU-AuzjVrL-15" connectable="0" vertex="1">
          <mxGeometry relative="1" as="geometry" />
        </mxCell>
        <mxCell id="5F9HXcc7RbMU-AuzjVrL-17" value="Request" style="edgeLabel;html=1;align=center;verticalAlign=middle;resizable=0;points=[];fontSize=15;" parent="5F9HXcc7RbMU-AuzjVrL-15" vertex="1" connectable="0">
          <mxGeometry relative="1" as="geometry">
            <mxPoint as="offset" />
          </mxGeometry>
        </mxCell>
        <mxCell id="5F9HXcc7RbMU-AuzjVrL-18" value="" style="endArrow=classic;html=1;rounded=0;entryX=1;entryY=0.75;entryDx=0;entryDy=0;exitX=0;exitY=0.75;exitDx=0;exitDy=0;fontSize=16;" parent="5C9z1z_1abzm-yXC4u0z-18" source="5F9HXcc7RbMU-AuzjVrL-9" target="5F9HXcc7RbMU-AuzjVrL-7" edge="1">
          <mxGeometry relative="1" as="geometry">
            <mxPoint x="345" as="sourcePoint" />
            <mxPoint x="445" as="targetPoint" />
          </mxGeometry>
        </mxCell>
        <mxCell id="5F9HXcc7RbMU-AuzjVrL-19" value="Label" style="edgeLabel;resizable=0;html=1;align=center;verticalAlign=middle;fontSize=15;" parent="5F9HXcc7RbMU-AuzjVrL-18" connectable="0" vertex="1">
          <mxGeometry relative="1" as="geometry" />
        </mxCell>
        <mxCell id="5F9HXcc7RbMU-AuzjVrL-20" value="Response" style="edgeLabel;html=1;align=center;verticalAlign=middle;resizable=0;points=[];fontSize=15;" parent="5F9HXcc7RbMU-AuzjVrL-18" vertex="1" connectable="0">
          <mxGeometry relative="1" as="geometry">
            <mxPoint as="offset" />
          </mxGeometry>
        </mxCell>
        <mxCell id="5F9HXcc7RbMU-AuzjVrL-24" value="&lt;font style=&quot;font-size: 19px;&quot;&gt;Books&lt;/font&gt;" style="html=1;dashed=0;whiteSpace=wrap;fontSize=19;" parent="5C9z1z_1abzm-yXC4u0z-18" vertex="1">
          <mxGeometry x="630" width="120" height="80" as="geometry" />
        </mxCell>
        <mxCell id="5F9HXcc7RbMU-AuzjVrL-25" value="" style="endArrow=classic;html=1;rounded=0;entryX=0;entryY=0.25;entryDx=0;entryDy=0;exitX=1;exitY=0.25;exitDx=0;exitDy=0;fontSize=16;" parent="5C9z1z_1abzm-yXC4u0z-18" source="5F9HXcc7RbMU-AuzjVrL-9" target="5F9HXcc7RbMU-AuzjVrL-24" edge="1">
          <mxGeometry relative="1" as="geometry">
            <mxPoint x="510" y="-10" as="sourcePoint" />
            <mxPoint x="570" y="-110" as="targetPoint" />
          </mxGeometry>
        </mxCell>
        <mxCell id="5F9HXcc7RbMU-AuzjVrL-26" value="Label" style="edgeLabel;resizable=0;html=1;align=center;verticalAlign=middle;fontSize=15;" parent="5F9HXcc7RbMU-AuzjVrL-25" connectable="0" vertex="1">
          <mxGeometry relative="1" as="geometry" />
        </mxCell>
        <mxCell id="5F9HXcc7RbMU-AuzjVrL-27" value="Book Info" style="edgeLabel;html=1;align=center;verticalAlign=middle;resizable=0;points=[];fontSize=15;" parent="5F9HXcc7RbMU-AuzjVrL-25" vertex="1" connectable="0">
          <mxGeometry relative="1" as="geometry">
            <mxPoint as="offset" />
          </mxGeometry>
        </mxCell>
        <mxCell id="5F9HXcc7RbMU-AuzjVrL-28" value="" style="endArrow=classic;html=1;rounded=0;entryX=1;entryY=0.5;entryDx=0;entryDy=0;exitX=0;exitY=0.5;exitDx=0;exitDy=0;fontSize=16;" parent="5C9z1z_1abzm-yXC4u0z-18" source="5F9HXcc7RbMU-AuzjVrL-24" target="5F9HXcc7RbMU-AuzjVrL-9" edge="1">
          <mxGeometry relative="1" as="geometry">
            <mxPoint x="330" y="70" as="sourcePoint" />
            <mxPoint x="210" y="70" as="targetPoint" />
          </mxGeometry>
        </mxCell>
        <mxCell id="5F9HXcc7RbMU-AuzjVrL-29" value="Label" style="edgeLabel;resizable=0;html=1;align=center;verticalAlign=middle;fontSize=15;" parent="5F9HXcc7RbMU-AuzjVrL-28" connectable="0" vertex="1">
          <mxGeometry relative="1" as="geometry" />
        </mxCell>
        <mxCell id="5F9HXcc7RbMU-AuzjVrL-30" value="Response" style="edgeLabel;html=1;align=center;verticalAlign=middle;resizable=0;points=[];fontSize=15;" parent="5F9HXcc7RbMU-AuzjVrL-28" vertex="1" connectable="0">
          <mxGeometry relative="1" as="geometry">
            <mxPoint as="offset" />
          </mxGeometry>
        </mxCell>
        <mxCell id="5F9HXcc7RbMU-AuzjVrL-42" value="" style="endArrow=classic;html=1;rounded=0;exitX=0.75;exitY=1;exitDx=0;exitDy=0;fontSize=16;" parent="5C9z1z_1abzm-yXC4u0z-18" source="5F9HXcc7RbMU-AuzjVrL-9" edge="1">
          <mxGeometry relative="1" as="geometry">
            <mxPoint x="330" y="170" as="sourcePoint" />
            <mxPoint x="680" y="80" as="targetPoint" />
            <Array as="points">
              <mxPoint x="430" y="120" />
              <mxPoint x="680" y="120" />
            </Array>
          </mxGeometry>
        </mxCell>
        <mxCell id="5F9HXcc7RbMU-AuzjVrL-43" value="Label" style="edgeLabel;resizable=0;html=1;align=center;verticalAlign=middle;fontSize=15;" parent="5F9HXcc7RbMU-AuzjVrL-42" connectable="0" vertex="1">
          <mxGeometry relative="1" as="geometry" />
        </mxCell>
        <mxCell id="5F9HXcc7RbMU-AuzjVrL-44" value="Book Request" style="edgeLabel;html=1;align=center;verticalAlign=middle;resizable=0;points=[];fontSize=15;" parent="5F9HXcc7RbMU-AuzjVrL-42" vertex="1" connectable="0">
          <mxGeometry relative="1" as="geometry">
            <mxPoint as="offset" />
          </mxGeometry>
        </mxCell>
        <mxCell id="5F9HXcc7RbMU-AuzjVrL-45" value="" style="endArrow=classic;html=1;rounded=0;entryX=1;entryY=0.75;entryDx=0;entryDy=0;exitX=0;exitY=0.75;exitDx=0;exitDy=0;fontSize=16;" parent="5C9z1z_1abzm-yXC4u0z-18" source="5F9HXcc7RbMU-AuzjVrL-24" target="5F9HXcc7RbMU-AuzjVrL-9" edge="1">
          <mxGeometry relative="1" as="geometry">
            <mxPoint x="330" y="170" as="sourcePoint" />
            <mxPoint x="430" y="170" as="targetPoint" />
          </mxGeometry>
        </mxCell>
        <mxCell id="5F9HXcc7RbMU-AuzjVrL-46" value="Fine" style="edgeLabel;resizable=0;html=1;align=center;verticalAlign=middle;fontSize=15;" parent="5F9HXcc7RbMU-AuzjVrL-45" connectable="0" vertex="1">
          <mxGeometry relative="1" as="geometry" />
        </mxCell>
        <mxCell id="5F9HXcc7RbMU-AuzjVrL-49" value="&lt;font style=&quot;font-size: 20px;&quot;&gt;Fig 1: Context Diagram, Level 0&lt;/font&gt;" style="text;html=1;strokeColor=none;fillColor=none;align=center;verticalAlign=middle;whiteSpace=wrap;rounded=0;fontSize=20;" parent="5C9z1z_1abzm-yXC4u0z-18" vertex="1">
          <mxGeometry x="220" y="170" width="320" height="30" as="geometry" />
        </mxCell>
        <mxCell id="5C9z1z_1abzm-yXC4u0z-9" value="" style="group" parent="5C9z1z_1abzm-yXC4u0z-18" vertex="1" connectable="0">
          <mxGeometry x="280" width="200" height="80" as="geometry" />
        </mxCell>
        <mxCell id="5F9HXcc7RbMU-AuzjVrL-9" value="Library Management&lt;br style=&quot;font-size: 19px;&quot;&gt;System" style="rounded=1;whiteSpace=wrap;html=1;fontSize=19;verticalAlign=bottom;horizontal=1;noLabel=0;" parent="5C9z1z_1abzm-yXC4u0z-9" vertex="1">
          <mxGeometry width="200" height="80" as="geometry" />
        </mxCell>
        <mxCell id="5C9z1z_1abzm-yXC4u0z-5" value="" style="endArrow=none;html=1;rounded=0;entryX=1;entryY=0.25;entryDx=0;entryDy=0;exitX=0;exitY=0.25;exitDx=0;exitDy=0;movable=1;resizable=1;rotatable=1;deletable=1;editable=1;locked=0;connectable=1;" parent="5C9z1z_1abzm-yXC4u0z-9" source="5F9HXcc7RbMU-AuzjVrL-9" target="5F9HXcc7RbMU-AuzjVrL-9" edge="1">
          <mxGeometry width="50" height="50" relative="1" as="geometry">
            <mxPoint x="420" y="480" as="sourcePoint" />
            <mxPoint x="470" y="430" as="targetPoint" />
          </mxGeometry>
        </mxCell>
        <mxCell id="5C9z1z_1abzm-yXC4u0z-6" value="0.0" style="text;html=1;strokeColor=none;fillColor=none;align=center;verticalAlign=bottom;whiteSpace=wrap;rounded=0;container=0;movable=1;resizable=1;rotatable=1;deletable=1;editable=1;locked=0;connectable=1;" parent="5C9z1z_1abzm-yXC4u0z-9" vertex="1">
          <mxGeometry x="85" y="10" width="30" height="10" as="geometry" />
        </mxCell>
        <mxCell id="5C9z1z_1abzm-yXC4u0z-87" value="" style="group" parent="1" vertex="1" connectable="0">
          <mxGeometry x="39" y="260" width="751" height="400" as="geometry" />
        </mxCell>
        <mxCell id="5C9z1z_1abzm-yXC4u0z-85" value="" style="group" parent="5C9z1z_1abzm-yXC4u0z-87" vertex="1" connectable="0">
          <mxGeometry width="751" height="350" as="geometry" />
        </mxCell>
        <mxCell id="5C9z1z_1abzm-yXC4u0z-19" value="&lt;font style=&quot;font-size: 19px;&quot;&gt;Student&lt;/font&gt;" style="html=1;dashed=0;whiteSpace=wrap;fontSize=19;" parent="5C9z1z_1abzm-yXC4u0z-85" vertex="1">
          <mxGeometry y="30" width="120" height="80" as="geometry" />
        </mxCell>
        <mxCell id="5C9z1z_1abzm-yXC4u0z-28" value="" style="endArrow=classic;html=1;rounded=0;exitX=1;exitY=0.25;exitDx=0;exitDy=0;entryX=0;entryY=0.25;entryDx=0;entryDy=0;fontSize=16;" parent="5C9z1z_1abzm-yXC4u0z-85" source="5C9z1z_1abzm-yXC4u0z-19" target="5C9z1z_1abzm-yXC4u0z-21" edge="1">
          <mxGeometry relative="1" as="geometry">
            <mxPoint x="120" y="58" as="sourcePoint" />
            <mxPoint x="280" y="58" as="targetPoint" />
          </mxGeometry>
        </mxCell>
        <mxCell id="5C9z1z_1abzm-yXC4u0z-29" value="Label" style="edgeLabel;resizable=0;html=1;align=center;verticalAlign=middle;fontSize=15;" parent="5C9z1z_1abzm-yXC4u0z-28" connectable="0" vertex="1">
          <mxGeometry relative="1" as="geometry" />
        </mxCell>
        <mxCell id="5C9z1z_1abzm-yXC4u0z-30" value="ID Card" style="edgeLabel;html=1;align=center;verticalAlign=middle;resizable=0;points=[];fontSize=15;" parent="5C9z1z_1abzm-yXC4u0z-28" vertex="1" connectable="0">
          <mxGeometry relative="1" as="geometry">
            <mxPoint as="offset" />
          </mxGeometry>
        </mxCell>
        <mxCell id="5C9z1z_1abzm-yXC4u0z-31" value="" style="endArrow=classic;html=1;rounded=0;exitX=1;exitY=0.5;exitDx=0;exitDy=0;entryX=0;entryY=0.5;entryDx=0;entryDy=0;fontSize=16;" parent="5C9z1z_1abzm-yXC4u0z-85" source="5C9z1z_1abzm-yXC4u0z-19" target="5C9z1z_1abzm-yXC4u0z-21" edge="1">
          <mxGeometry relative="1" as="geometry">
            <mxPoint x="120" y="78" as="sourcePoint" />
            <mxPoint x="280" y="78" as="targetPoint" />
          </mxGeometry>
        </mxCell>
        <mxCell id="5C9z1z_1abzm-yXC4u0z-32" value="Label" style="edgeLabel;resizable=0;html=1;align=center;verticalAlign=middle;fontSize=15;" parent="5C9z1z_1abzm-yXC4u0z-31" connectable="0" vertex="1">
          <mxGeometry relative="1" as="geometry" />
        </mxCell>
        <mxCell id="5C9z1z_1abzm-yXC4u0z-33" value="Request" style="edgeLabel;html=1;align=center;verticalAlign=middle;resizable=0;points=[];fontSize=15;" parent="5C9z1z_1abzm-yXC4u0z-31" vertex="1" connectable="0">
          <mxGeometry relative="1" as="geometry">
            <mxPoint as="offset" />
          </mxGeometry>
        </mxCell>
        <mxCell id="5C9z1z_1abzm-yXC4u0z-34" value="" style="endArrow=classic;html=1;rounded=0;exitX=0;exitY=0.75;exitDx=0;exitDy=0;fontSize=16;entryX=1;entryY=0.75;entryDx=0;entryDy=0;" parent="5C9z1z_1abzm-yXC4u0z-85" source="5C9z1z_1abzm-yXC4u0z-21" target="5C9z1z_1abzm-yXC4u0z-19" edge="1">
          <mxGeometry relative="1" as="geometry">
            <mxPoint x="280" y="98" as="sourcePoint" />
            <mxPoint x="120" y="98" as="targetPoint" />
          </mxGeometry>
        </mxCell>
        <mxCell id="5C9z1z_1abzm-yXC4u0z-35" value="Label" style="edgeLabel;resizable=0;html=1;align=center;verticalAlign=middle;fontSize=15;" parent="5C9z1z_1abzm-yXC4u0z-34" connectable="0" vertex="1">
          <mxGeometry relative="1" as="geometry" />
        </mxCell>
        <mxCell id="5C9z1z_1abzm-yXC4u0z-36" value="Response" style="edgeLabel;html=1;align=center;verticalAlign=middle;resizable=0;points=[];fontSize=15;" parent="5C9z1z_1abzm-yXC4u0z-34" vertex="1" connectable="0">
          <mxGeometry relative="1" as="geometry">
            <mxPoint as="offset" />
          </mxGeometry>
        </mxCell>
        <mxCell id="5C9z1z_1abzm-yXC4u0z-37" style="edgeStyle=orthogonalEdgeStyle;rounded=0;orthogonalLoop=1;jettySize=auto;html=1;exitX=1;exitY=0.25;exitDx=0;exitDy=0;" parent="5C9z1z_1abzm-yXC4u0z-85" source="5C9z1z_1abzm-yXC4u0z-21" edge="1">
          <mxGeometry relative="1" as="geometry">
            <mxPoint x="631" y="10" as="targetPoint" />
            <Array as="points">
              <mxPoint x="551" y="40" />
              <mxPoint x="581" y="40" />
              <mxPoint x="581" y="10" />
            </Array>
          </mxGeometry>
        </mxCell>
        <mxCell id="5C9z1z_1abzm-yXC4u0z-39" style="edgeStyle=orthogonalEdgeStyle;rounded=0;orthogonalLoop=1;jettySize=auto;html=1;exitX=1;exitY=0.5;exitDx=0;exitDy=0;" parent="5C9z1z_1abzm-yXC4u0z-85" source="5C9z1z_1abzm-yXC4u0z-21" edge="1">
          <mxGeometry relative="1" as="geometry">
            <mxPoint x="631" y="50" as="targetPoint" />
          </mxGeometry>
        </mxCell>
        <mxCell id="5C9z1z_1abzm-yXC4u0z-46" value="" style="group" parent="5C9z1z_1abzm-yXC4u0z-85" vertex="1" connectable="0">
          <mxGeometry x="351" y="30" width="200" height="80" as="geometry" />
        </mxCell>
        <mxCell id="5C9z1z_1abzm-yXC4u0z-49" style="edgeStyle=orthogonalEdgeStyle;rounded=0;orthogonalLoop=1;jettySize=auto;html=1;exitX=1;exitY=0.75;exitDx=0;exitDy=0;" parent="5C9z1z_1abzm-yXC4u0z-46" source="5C9z1z_1abzm-yXC4u0z-21" edge="1">
          <mxGeometry relative="1" as="geometry">
            <mxPoint x="280" y="60.14285714285711" as="targetPoint" />
          </mxGeometry>
        </mxCell>
        <mxCell id="5C9z1z_1abzm-yXC4u0z-21" value="Library Management&lt;br style=&quot;font-size: 19px;&quot;&gt;System" style="rounded=1;whiteSpace=wrap;html=1;fontSize=19;verticalAlign=bottom;horizontal=1;noLabel=0;container=0;" parent="5C9z1z_1abzm-yXC4u0z-46" vertex="1">
          <mxGeometry width="200" height="80" as="geometry">
            <mxRectangle width="210" height="60" as="alternateBounds" />
          </mxGeometry>
        </mxCell>
        <UserObject label="1.0" id="5C9z1z_1abzm-yXC4u0z-23">
          <mxCell style="text;html=1;strokeColor=none;fillColor=none;align=center;verticalAlign=bottom;whiteSpace=wrap;rounded=0;container=0;movable=1;resizable=1;rotatable=1;deletable=1;editable=1;locked=0;connectable=1;" parent="5C9z1z_1abzm-yXC4u0z-46" vertex="1">
            <mxGeometry width="200" height="20" as="geometry" />
          </mxCell>
        </UserObject>
        <mxCell id="5C9z1z_1abzm-yXC4u0z-22" value="" style="endArrow=none;html=1;rounded=0;entryX=0;entryY=0.25;entryDx=0;entryDy=0;exitX=1;exitY=0.25;exitDx=0;exitDy=0;movable=1;resizable=1;rotatable=1;deletable=1;editable=1;locked=0;connectable=1;" parent="5C9z1z_1abzm-yXC4u0z-46" source="5C9z1z_1abzm-yXC4u0z-21" target="5C9z1z_1abzm-yXC4u0z-21" edge="1">
          <mxGeometry width="50" height="50" relative="1" as="geometry">
            <mxPoint x="805" y="640" as="sourcePoint" />
            <mxPoint x="755" y="740" as="targetPoint" />
          </mxGeometry>
        </mxCell>
        <mxCell id="5C9z1z_1abzm-yXC4u0z-50" value="D1&lt;span style=&quot;white-space: pre; font-size: 13px;&quot;&gt;&#x9;&lt;/span&gt;&amp;nbsp;Book Shelves&lt;br style=&quot;font-size: 13px;&quot;&gt;" style="html=1;dashed=0;whiteSpace=wrap;shape=mxgraph.dfd.dataStoreID;align=left;spacingLeft=3;points=[[0,0],[0.5,0],[1,0],[0,0.5],[1,0.5],[0,1],[0.5,1],[1,1]];fontSize=13;" parent="5C9z1z_1abzm-yXC4u0z-85" vertex="1">
          <mxGeometry x="631" width="120" height="30" as="geometry" />
        </mxCell>
        <mxCell id="5C9z1z_1abzm-yXC4u0z-51" value="D2&lt;span style=&quot;white-space: pre; font-size: 13px;&quot;&gt;&#x9;&lt;/span&gt;&amp;nbsp;Authors" style="html=1;dashed=0;whiteSpace=wrap;shape=mxgraph.dfd.dataStoreID;align=left;spacingLeft=3;points=[[0,0],[0.5,0],[1,0],[0,0.5],[1,0.5],[0,1],[0.5,1],[1,1]];fontSize=13;" parent="5C9z1z_1abzm-yXC4u0z-85" vertex="1">
          <mxGeometry x="631" y="40" width="120" height="30" as="geometry" />
        </mxCell>
        <mxCell id="5C9z1z_1abzm-yXC4u0z-52" value="D3&lt;span style=&quot;white-space: pre; font-size: 13px;&quot;&gt;&#x9;&lt;/span&gt;&amp;nbsp;Titles" style="html=1;dashed=0;whiteSpace=wrap;shape=mxgraph.dfd.dataStoreID;align=left;spacingLeft=3;points=[[0,0],[0.5,0],[1,0],[0,0.5],[1,0.5],[0,1],[0.5,1],[1,1]];fontSize=13;" parent="5C9z1z_1abzm-yXC4u0z-85" vertex="1">
          <mxGeometry x="631" y="80" width="120" height="30" as="geometry" />
        </mxCell>
        <mxCell id="5C9z1z_1abzm-yXC4u0z-56" value="&lt;font style=&quot;font-size: 19px;&quot;&gt;Books&lt;/font&gt;" style="html=1;dashed=0;whiteSpace=wrap;fontSize=19;" parent="5C9z1z_1abzm-yXC4u0z-85" vertex="1">
          <mxGeometry x="631" y="158" width="120" height="82" as="geometry" />
        </mxCell>
        <mxCell id="5C9z1z_1abzm-yXC4u0z-57" style="edgeStyle=orthogonalEdgeStyle;rounded=0;orthogonalLoop=1;jettySize=auto;html=1;exitX=0.75;exitY=1;exitDx=0;exitDy=0;entryX=0;entryY=0.5;entryDx=0;entryDy=0;" parent="5C9z1z_1abzm-yXC4u0z-85" source="5C9z1z_1abzm-yXC4u0z-21" target="5C9z1z_1abzm-yXC4u0z-56" edge="1">
          <mxGeometry relative="1" as="geometry" />
        </mxCell>
        <mxCell id="5C9z1z_1abzm-yXC4u0z-58" value="Book Information" style="edgeLabel;html=1;align=center;verticalAlign=middle;resizable=0;points=[];fontSize=15;" parent="5C9z1z_1abzm-yXC4u0z-57" vertex="1" connectable="0">
          <mxGeometry x="0.306" y="-1" relative="1" as="geometry">
            <mxPoint x="16" y="-1" as="offset" />
          </mxGeometry>
        </mxCell>
        <mxCell id="5C9z1z_1abzm-yXC4u0z-80" style="edgeStyle=orthogonalEdgeStyle;rounded=0;orthogonalLoop=1;jettySize=auto;html=1;exitX=0;exitY=0.75;exitDx=0;exitDy=0;entryX=0.25;entryY=1;entryDx=0;entryDy=0;" parent="5C9z1z_1abzm-yXC4u0z-85" source="5C9z1z_1abzm-yXC4u0z-60" target="5C9z1z_1abzm-yXC4u0z-19" edge="1">
          <mxGeometry relative="1" as="geometry" />
        </mxCell>
        <mxCell id="5C9z1z_1abzm-yXC4u0z-84" value="Book Based on Topic" style="edgeLabel;html=1;align=center;verticalAlign=middle;resizable=0;points=[];fontSize=15;" parent="5C9z1z_1abzm-yXC4u0z-80" vertex="1" connectable="0">
          <mxGeometry x="-0.5376" y="1" relative="1" as="geometry">
            <mxPoint as="offset" />
          </mxGeometry>
        </mxCell>
        <mxCell id="5C9z1z_1abzm-yXC4u0z-60" value="2.0" style="swimlane;whiteSpace=wrap;html=1;rounded=1;points=[[0,0,0,0,0],[0,0.25,0,0,0],[0,0.42,0,0,0],[0,0.75,0,0,0],[0,1,0,0,0],[0.25,0,0,0,0],[0.25,1,0,0,0],[0.5,0,0,0,0],[0.5,1,0,0,0],[0.75,0,0,0,0],[0.75,1,0,0,0],[1,0,0,0,0],[1,0.25,0,0,0],[1,0.5,0,0,0],[1,0.75,0,0,0],[1,1,0,0,0]];" parent="5C9z1z_1abzm-yXC4u0z-85" vertex="1">
          <mxGeometry x="361" y="270" width="170" height="80" as="geometry">
            <mxRectangle x="310" y="560" width="140" height="30" as="alternateBounds" />
          </mxGeometry>
        </mxCell>
        <mxCell id="5C9z1z_1abzm-yXC4u0z-62" value="Topic Search" style="text;html=1;align=center;verticalAlign=middle;resizable=0;points=[];autosize=1;strokeColor=none;fillColor=none;fontSize=19;" parent="5C9z1z_1abzm-yXC4u0z-60" vertex="1">
          <mxGeometry x="20" y="38" width="130" height="40" as="geometry" />
        </mxCell>
        <mxCell id="5C9z1z_1abzm-yXC4u0z-82" style="edgeStyle=orthogonalEdgeStyle;rounded=0;orthogonalLoop=1;jettySize=auto;html=1;exitX=0.75;exitY=1;exitDx=0;exitDy=0;entryX=0;entryY=0.42;entryDx=0;entryDy=0;entryPerimeter=0;" parent="5C9z1z_1abzm-yXC4u0z-85" source="5C9z1z_1abzm-yXC4u0z-19" target="5C9z1z_1abzm-yXC4u0z-60" edge="1">
          <mxGeometry relative="1" as="geometry" />
        </mxCell>
        <mxCell id="5C9z1z_1abzm-yXC4u0z-83" value="Book request according to Topic" style="edgeLabel;html=1;align=center;verticalAlign=middle;resizable=0;points=[];fontSize=15;" parent="5C9z1z_1abzm-yXC4u0z-82" vertex="1" connectable="0">
          <mxGeometry x="0.5041" y="1" relative="1" as="geometry">
            <mxPoint as="offset" />
          </mxGeometry>
        </mxCell>
        <mxCell id="5C9z1z_1abzm-yXC4u0z-78" style="edgeStyle=orthogonalEdgeStyle;rounded=0;orthogonalLoop=1;jettySize=auto;html=1;entryX=0.25;entryY=0;entryDx=0;entryDy=0;" parent="5C9z1z_1abzm-yXC4u0z-85" source="5C9z1z_1abzm-yXC4u0z-64" target="5C9z1z_1abzm-yXC4u0z-60" edge="1">
          <mxGeometry relative="1" as="geometry" />
        </mxCell>
        <mxCell id="5C9z1z_1abzm-yXC4u0z-79" value="Topic" style="edgeLabel;html=1;align=center;verticalAlign=middle;resizable=0;points=[];fontSize=15;" parent="5C9z1z_1abzm-yXC4u0z-78" vertex="1" connectable="0">
          <mxGeometry x="-0.021" relative="1" as="geometry">
            <mxPoint as="offset" />
          </mxGeometry>
        </mxCell>
        <mxCell id="5C9z1z_1abzm-yXC4u0z-64" value="D4&lt;span style=&quot;white-space: pre; font-size: 13px;&quot;&gt;&#x9;&lt;/span&gt;&amp;nbsp;List of Topics" style="html=1;dashed=0;whiteSpace=wrap;shape=mxgraph.dfd.dataStoreID;align=left;spacingLeft=3;points=[[0,0],[0.5,0],[1,0],[0,0.5],[1,0.5],[0,1],[0.5,1],[1,1]];fontSize=13;" parent="5C9z1z_1abzm-yXC4u0z-85" vertex="1">
          <mxGeometry x="341" y="180" width="120" height="30" as="geometry" />
        </mxCell>
        <mxCell id="5C9z1z_1abzm-yXC4u0z-71" style="edgeStyle=orthogonalEdgeStyle;rounded=0;orthogonalLoop=1;jettySize=auto;html=1;exitX=0.164;exitY=1.045;exitDx=0;exitDy=0;exitPerimeter=0;entryX=0.364;entryY=0.079;entryDx=0;entryDy=0;entryPerimeter=0;" parent="5C9z1z_1abzm-yXC4u0z-85" source="5C9z1z_1abzm-yXC4u0z-21" target="5C9z1z_1abzm-yXC4u0z-64" edge="1">
          <mxGeometry relative="1" as="geometry">
            <mxPoint x="381" y="341" as="targetPoint" />
          </mxGeometry>
        </mxCell>
        <mxCell id="5C9z1z_1abzm-yXC4u0z-75" value="Topics" style="edgeLabel;html=1;align=center;verticalAlign=middle;resizable=0;points=[];fontSize=15;" parent="5C9z1z_1abzm-yXC4u0z-71" vertex="1" connectable="0">
          <mxGeometry x="-0.1811" y="1" relative="1" as="geometry">
            <mxPoint as="offset" />
          </mxGeometry>
        </mxCell>
        <mxCell id="5C9z1z_1abzm-yXC4u0z-86" value="&lt;font style=&quot;font-size: 20px;&quot;&gt;Fig 2: Level 1 Data Flow Diagram&lt;/font&gt;" style="text;html=1;strokeColor=none;fillColor=none;align=center;verticalAlign=middle;whiteSpace=wrap;rounded=0;fontSize=20;" parent="5C9z1z_1abzm-yXC4u0z-87" vertex="1">
          <mxGeometry x="215.5" y="370" width="320" height="30" as="geometry" />
        </mxCell>
        <mxCell id="BsP-pDDsPz5IKsblQRho-14" value="" style="group" vertex="1" connectable="0" parent="1">
          <mxGeometry x="39" y="720" width="761" height="413" as="geometry" />
        </mxCell>
        <mxCell id="BsP-pDDsPz5IKsblQRho-12" value="" style="group" vertex="1" connectable="0" parent="BsP-pDDsPz5IKsblQRho-14">
          <mxGeometry width="761" height="367" as="geometry" />
        </mxCell>
        <mxCell id="5C9z1z_1abzm-yXC4u0z-88" value="Student" style="rounded=0;whiteSpace=wrap;html=1;fontSize=19;" parent="BsP-pDDsPz5IKsblQRho-12" vertex="1">
          <mxGeometry width="120" height="80" as="geometry" />
        </mxCell>
        <mxCell id="5C9z1z_1abzm-yXC4u0z-89" value="1.1" style="swimlane;whiteSpace=wrap;html=1;rounded=1;points=[[0,0,0,0,0],[0,0.25,0,0,0],[0,0.57,0,0,0],[0,0.75,0,0,0],[0,1,0,0,0],[0.25,0,0,0,0],[0.25,1,0,0,0],[0.5,0,0,0,0],[0.5,1,0,0,0],[0.75,0,0,0,0],[0.75,1,0,0,0],[1,0,0,0,0],[1,0.25,0,0,0],[1,0.5,0,0,0],[1,0.75,0,0,0],[1,1,0,0,0]];" parent="BsP-pDDsPz5IKsblQRho-12" vertex="1">
          <mxGeometry x="301" width="120" height="80" as="geometry" />
        </mxCell>
        <mxCell id="5C9z1z_1abzm-yXC4u0z-106" style="edgeStyle=orthogonalEdgeStyle;rounded=0;orthogonalLoop=1;jettySize=auto;html=1;exitX=0.5;exitY=0;exitDx=0;exitDy=0;entryX=0.5;entryY=1;entryDx=0;entryDy=0;" parent="BsP-pDDsPz5IKsblQRho-12" source="5C9z1z_1abzm-yXC4u0z-90" target="5C9z1z_1abzm-yXC4u0z-89" edge="1">
          <mxGeometry relative="1" as="geometry" />
        </mxCell>
        <mxCell id="5C9z1z_1abzm-yXC4u0z-107" value="Shelve Number andf&lt;br style=&quot;font-size: 15px;&quot;&gt;Book Information" style="edgeLabel;html=1;align=center;verticalAlign=middle;resizable=0;points=[];fontSize=15;" parent="5C9z1z_1abzm-yXC4u0z-106" vertex="1" connectable="0">
          <mxGeometry x="-0.0065" y="2" relative="1" as="geometry">
            <mxPoint as="offset" />
          </mxGeometry>
        </mxCell>
        <mxCell id="5C9z1z_1abzm-yXC4u0z-90" value="1.2" style="swimlane;whiteSpace=wrap;html=1;rounded=1;" parent="BsP-pDDsPz5IKsblQRho-12" vertex="1">
          <mxGeometry x="298.5" y="160" width="125" height="80" as="geometry" />
        </mxCell>
        <mxCell id="5C9z1z_1abzm-yXC4u0z-94" value="Search Book" style="text;html=1;align=center;verticalAlign=middle;resizable=0;points=[];autosize=1;strokeColor=none;fillColor=none;fontSize=19;" parent="5C9z1z_1abzm-yXC4u0z-90" vertex="1">
          <mxGeometry x="-5" y="30" width="130" height="40" as="geometry" />
        </mxCell>
        <mxCell id="5C9z1z_1abzm-yXC4u0z-91" value="1.3" style="swimlane;whiteSpace=wrap;html=1;rounded=1;points=[[0,0,0,0,0],[0,0.25,0,0,0],[0,0.5,0,0,0],[0,0.75,0,0,0],[0,1,0,0,0],[0.25,0,0,0,0],[0.25,1,0,0,0],[0.5,0,0,0,0],[0.5,1,0,0,0],[0.75,0,0,0,0],[0.75,1,0,0,0],[1,0,0,0,0],[1,0.25,0,0,0],[1,0.44,0,0,0],[1,0.75,0,0,0],[1,1,0,0,0]];" parent="BsP-pDDsPz5IKsblQRho-12" vertex="1">
          <mxGeometry x="278.5" y="285" width="165" height="82" as="geometry" />
        </mxCell>
        <mxCell id="5C9z1z_1abzm-yXC4u0z-95" value="Update list of &lt;br style=&quot;font-size: 19px;&quot;&gt;Borrowed Books" style="text;html=1;align=center;verticalAlign=middle;resizable=0;points=[];autosize=1;strokeColor=none;fillColor=none;fontSize=19;" parent="5C9z1z_1abzm-yXC4u0z-91" vertex="1">
          <mxGeometry x="2.5" y="25" width="160" height="60" as="geometry" />
        </mxCell>
        <mxCell id="5C9z1z_1abzm-yXC4u0z-92" value="Display of Books" style="rounded=0;whiteSpace=wrap;html=1;fontSize=19;" parent="BsP-pDDsPz5IKsblQRho-12" vertex="1">
          <mxGeometry x="11" y="290" width="120" height="77" as="geometry" />
        </mxCell>
        <mxCell id="5C9z1z_1abzm-yXC4u0z-93" value="Get Book" style="text;html=1;align=center;verticalAlign=middle;resizable=0;points=[];autosize=1;strokeColor=none;fillColor=none;fontSize=19;" parent="BsP-pDDsPz5IKsblQRho-12" vertex="1">
          <mxGeometry x="311" y="33" width="100" height="40" as="geometry" />
        </mxCell>
        <mxCell id="5C9z1z_1abzm-yXC4u0z-100" style="edgeStyle=orthogonalEdgeStyle;rounded=0;orthogonalLoop=1;jettySize=auto;html=1;exitX=0;exitY=0.5;exitDx=0;exitDy=0;entryX=1;entryY=0.25;entryDx=0;entryDy=0;" parent="BsP-pDDsPz5IKsblQRho-12" source="5C9z1z_1abzm-yXC4u0z-97" target="5C9z1z_1abzm-yXC4u0z-90" edge="1">
          <mxGeometry relative="1" as="geometry" />
        </mxCell>
        <mxCell id="5C9z1z_1abzm-yXC4u0z-101" value="Author" style="edgeLabel;html=1;align=center;verticalAlign=middle;resizable=0;points=[];fontSize=15;" parent="5C9z1z_1abzm-yXC4u0z-100" vertex="1" connectable="0">
          <mxGeometry x="0.0717" y="-1" relative="1" as="geometry">
            <mxPoint as="offset" />
          </mxGeometry>
        </mxCell>
        <mxCell id="5C9z1z_1abzm-yXC4u0z-97" value="D2&lt;span style=&quot;white-space: pre; font-size: 13px;&quot;&gt;&#x9;&lt;/span&gt;&amp;nbsp;Authors" style="html=1;dashed=0;whiteSpace=wrap;shape=mxgraph.dfd.dataStoreID;align=left;spacingLeft=3;points=[[0,0],[0.5,0],[1,0],[0,0.5],[1,0.5],[0,1],[0.5,1],[1,1]];fontSize=13;" parent="BsP-pDDsPz5IKsblQRho-12" vertex="1">
          <mxGeometry x="581" y="160" width="120" height="30" as="geometry" />
        </mxCell>
        <mxCell id="5C9z1z_1abzm-yXC4u0z-98" value="D3&lt;span style=&quot;white-space: pre; font-size: 13px;&quot;&gt;&#x9;&lt;/span&gt;&amp;nbsp;Titles" style="html=1;dashed=0;whiteSpace=wrap;shape=mxgraph.dfd.dataStoreID;align=left;spacingLeft=3;points=[[0,0],[0.5,0],[1,0],[0,0.5],[1,0.5],[0,1],[0.5,1],[1,1]];fontSize=13;" parent="BsP-pDDsPz5IKsblQRho-12" vertex="1">
          <mxGeometry x="581" y="210" width="120" height="30" as="geometry" />
        </mxCell>
        <mxCell id="5C9z1z_1abzm-yXC4u0z-104" style="edgeStyle=orthogonalEdgeStyle;rounded=0;orthogonalLoop=1;jettySize=auto;html=1;entryX=1;entryY=0.5;entryDx=0;entryDy=0;" parent="BsP-pDDsPz5IKsblQRho-12" source="5C9z1z_1abzm-yXC4u0z-99" target="5C9z1z_1abzm-yXC4u0z-89" edge="1">
          <mxGeometry relative="1" as="geometry" />
        </mxCell>
        <mxCell id="5C9z1z_1abzm-yXC4u0z-105" value="Book" style="edgeLabel;html=1;align=center;verticalAlign=middle;resizable=0;points=[];" parent="5C9z1z_1abzm-yXC4u0z-104" vertex="1" connectable="0">
          <mxGeometry x="0.0103" relative="1" as="geometry">
            <mxPoint as="offset" />
          </mxGeometry>
        </mxCell>
        <mxCell id="5C9z1z_1abzm-yXC4u0z-99" value="D1&lt;span style=&quot;white-space: pre; font-size: 13px;&quot;&gt;&#x9;&lt;/span&gt;&amp;nbsp;Book Shelves&lt;br style=&quot;font-size: 13px;&quot;&gt;" style="html=1;dashed=0;whiteSpace=wrap;shape=mxgraph.dfd.dataStoreID;align=left;spacingLeft=3;points=[[0,0],[0.5,0],[1,0],[0,0.5],[1,0.5],[0,1],[0.5,1],[1,1]];fontSize=13;" parent="BsP-pDDsPz5IKsblQRho-12" vertex="1">
          <mxGeometry x="581" y="25" width="120" height="30" as="geometry" />
        </mxCell>
        <mxCell id="5C9z1z_1abzm-yXC4u0z-102" style="edgeStyle=orthogonalEdgeStyle;rounded=0;orthogonalLoop=1;jettySize=auto;html=1;entryX=1;entryY=0.75;entryDx=0;entryDy=0;" parent="BsP-pDDsPz5IKsblQRho-12" source="5C9z1z_1abzm-yXC4u0z-98" target="5C9z1z_1abzm-yXC4u0z-90" edge="1">
          <mxGeometry relative="1" as="geometry">
            <mxPoint x="431" y="220" as="targetPoint" />
          </mxGeometry>
        </mxCell>
        <mxCell id="5C9z1z_1abzm-yXC4u0z-103" value="Title" style="edgeLabel;html=1;align=center;verticalAlign=middle;resizable=0;points=[];fontSize=15;" parent="5C9z1z_1abzm-yXC4u0z-102" vertex="1" connectable="0">
          <mxGeometry x="0.0063" relative="1" as="geometry">
            <mxPoint as="offset" />
          </mxGeometry>
        </mxCell>
        <mxCell id="BsP-pDDsPz5IKsblQRho-3" value="" style="endArrow=classic;html=1;rounded=0;exitX=1;exitY=0.311;exitDx=0;exitDy=0;entryX=0.005;entryY=0.301;entryDx=0;entryDy=0;fontSize=16;exitPerimeter=0;entryPerimeter=0;" edge="1" parent="BsP-pDDsPz5IKsblQRho-12" source="5C9z1z_1abzm-yXC4u0z-88" target="5C9z1z_1abzm-yXC4u0z-89">
          <mxGeometry relative="1" as="geometry">
            <mxPoint x="126" y="25" as="sourcePoint" />
            <mxPoint x="286" y="25" as="targetPoint" />
          </mxGeometry>
        </mxCell>
        <mxCell id="BsP-pDDsPz5IKsblQRho-4" value="Label" style="edgeLabel;resizable=0;html=1;align=center;verticalAlign=middle;fontSize=15;" connectable="0" vertex="1" parent="BsP-pDDsPz5IKsblQRho-3">
          <mxGeometry relative="1" as="geometry" />
        </mxCell>
        <mxCell id="BsP-pDDsPz5IKsblQRho-5" value="Request" style="edgeLabel;html=1;align=center;verticalAlign=middle;resizable=0;points=[];fontSize=15;" vertex="1" connectable="0" parent="BsP-pDDsPz5IKsblQRho-3">
          <mxGeometry relative="1" as="geometry">
            <mxPoint as="offset" />
          </mxGeometry>
        </mxCell>
        <mxCell id="5C9z1z_1abzm-yXC4u0z-108" style="edgeStyle=orthogonalEdgeStyle;rounded=0;orthogonalLoop=1;jettySize=auto;html=1;entryX=0.5;entryY=0;entryDx=0;entryDy=0;" parent="BsP-pDDsPz5IKsblQRho-12" source="5C9z1z_1abzm-yXC4u0z-90" target="5C9z1z_1abzm-yXC4u0z-91" edge="1">
          <mxGeometry relative="1" as="geometry" />
        </mxCell>
        <mxCell id="5C9z1z_1abzm-yXC4u0z-109" value="Book Title" style="edgeLabel;html=1;align=center;verticalAlign=middle;resizable=0;points=[];fontSize=15;" parent="5C9z1z_1abzm-yXC4u0z-108" vertex="1" connectable="0">
          <mxGeometry x="-0.037" y="2" relative="1" as="geometry">
            <mxPoint as="offset" />
          </mxGeometry>
        </mxCell>
        <mxCell id="BsP-pDDsPz5IKsblQRho-6" value="" style="endArrow=classic;html=1;rounded=0;entryX=0.991;entryY=0.558;entryDx=0;entryDy=0;exitX=0;exitY=0.57;exitDx=0;exitDy=0;fontSize=16;entryPerimeter=0;exitPerimeter=0;" edge="1" parent="BsP-pDDsPz5IKsblQRho-12" source="5C9z1z_1abzm-yXC4u0z-89" target="5C9z1z_1abzm-yXC4u0z-88">
          <mxGeometry relative="1" as="geometry">
            <mxPoint x="286" y="45" as="sourcePoint" />
            <mxPoint x="126" y="45" as="targetPoint" />
          </mxGeometry>
        </mxCell>
        <mxCell id="BsP-pDDsPz5IKsblQRho-7" value="Label" style="edgeLabel;resizable=0;html=1;align=center;verticalAlign=middle;fontSize=15;" connectable="0" vertex="1" parent="BsP-pDDsPz5IKsblQRho-6">
          <mxGeometry relative="1" as="geometry" />
        </mxCell>
        <mxCell id="BsP-pDDsPz5IKsblQRho-8" value="Response" style="edgeLabel;html=1;align=center;verticalAlign=middle;resizable=0;points=[];fontSize=15;" vertex="1" connectable="0" parent="BsP-pDDsPz5IKsblQRho-6">
          <mxGeometry relative="1" as="geometry">
            <mxPoint as="offset" />
          </mxGeometry>
        </mxCell>
        <mxCell id="BsP-pDDsPz5IKsblQRho-9" style="edgeStyle=orthogonalEdgeStyle;rounded=0;orthogonalLoop=1;jettySize=auto;html=1;entryX=0;entryY=0.5;entryDx=0;entryDy=0;entryPerimeter=0;" edge="1" parent="BsP-pDDsPz5IKsblQRho-12" source="5C9z1z_1abzm-yXC4u0z-92" target="5C9z1z_1abzm-yXC4u0z-91">
          <mxGeometry relative="1" as="geometry">
            <mxPoint x="251" y="325" as="targetPoint" />
          </mxGeometry>
        </mxCell>
        <mxCell id="BsP-pDDsPz5IKsblQRho-10" value="D4&lt;span style=&quot;white-space: pre;&quot;&gt;&#x9;&lt;/span&gt;&amp;nbsp;List of Borrowed books" style="html=1;dashed=0;whiteSpace=wrap;shape=mxgraph.dfd.dataStoreID;align=left;spacingLeft=3;points=[[0,0],[0.5,0],[1,0],[0,0.5],[1,0.5],[0,1],[0.5,1],[1,1]];fontSize=13;" vertex="1" parent="BsP-pDDsPz5IKsblQRho-12">
          <mxGeometry x="581" y="312.5" width="180" height="27" as="geometry" />
        </mxCell>
        <mxCell id="BsP-pDDsPz5IKsblQRho-11" style="edgeStyle=orthogonalEdgeStyle;rounded=0;orthogonalLoop=1;jettySize=auto;html=1;entryX=0;entryY=0.5;entryDx=0;entryDy=0;startArrow=classic;startFill=1;" edge="1" parent="BsP-pDDsPz5IKsblQRho-12" source="5C9z1z_1abzm-yXC4u0z-95" target="BsP-pDDsPz5IKsblQRho-10">
          <mxGeometry relative="1" as="geometry" />
        </mxCell>
        <mxCell id="BsP-pDDsPz5IKsblQRho-13" value="Fig 3: Level 2 Data Flow Diagram" style="text;html=1;align=center;verticalAlign=middle;resizable=0;points=[];autosize=1;strokeColor=none;fillColor=none;fontSize=20;" vertex="1" parent="BsP-pDDsPz5IKsblQRho-14">
          <mxGeometry x="201" y="373" width="320" height="40" as="geometry" />
        </mxCell>
      </root>
    </mxGraphModel>
  </diagram>
  <diagram id="AyXH09ufBt8NbBMt4s6U" name="Page-2">
    <mxGraphModel dx="1050" dy="573" grid="1" gridSize="10" guides="1" tooltips="1" connect="1" arrows="1" fold="1" page="1" pageScale="1" pageWidth="827" pageHeight="1169" math="0" shadow="0">
      <root>
        <mxCell id="0" />
        <mxCell id="1" parent="0" />
      </root>
    </mxGraphModel>
  </diagram>
</mxfile>
